<!DOCTYPE svg PUBLIC "-//W3C//DTD SVG 20010904//EN" "http://www.w3.org/TR/2001/REC-SVG-20010904/DTD/svg10.dtd">
<svg version="1.0" xmlns="http://www.w3.org/2000/svg" width="728px" height="90px" viewBox="0 0 7280 900" preserveAspectRatio="xMidYMid meet">
<g id="layer101" fill="#333333" stroke="none">
<path d="M0 450 l0 -450 3640 0 3640 0 0 450 0 450 -3640 0 -3640 0 0 -450z"/>
</g>
<g id="layer102" fill="#4f4f4f" stroke="none">
<path d="M0 450 l0 -450 3640 0 3640 0 0 450 0 450 -3640 0 -3640 0 0 -450z m498 183 c-3 -44 -5 -48 -30 -51 -26 -3 -28 -7 -28 -48 l0 -44 65 0 c117 0 160 -41 153 -146 -7 -113 -50 -134 -277 -134 l-141 0 0 50 c0 38 4 50 15 50 13 0 15 22 15 135 0 113 -2 135 -15 135 -11 0 -15 12 -15 50 l0 50 131 0 130 0 -3 -47z m412 -3 c0 -38 -4 -50 -15 -50 -11 0 -15 -12 -15 -50 l0 -50 45 0 45 0 0 50 c0 38 -4 50 -15 50 -11 0 -15 12 -15 50 l0 50 115 0 115 0 0 -50 c0 -38 -4 -50 -15 -50 -13 0 -15 -22 -15 -135 0 -113 2 -135 15 -135 11 0 15 -12 15 -50 l0 -50 -115 0 -115 0 0 50 c0 38 4 50 15 50 11 0 15 12 15 45 l0 45 -45 0 -45 0 0 -45 c0 -33 4 -45 15 -45 11 0 15 -12 15 -50 l0 -50 -115 0 -115 0 0 50 c0 38 4 50 15 50 13 0 15 22 15 135 0 113 -2 135 -15 135 -11 0 -15 12 -15 50 l0 50 115 0 115 0 0 -50z m548 3 c-3 -44 -5 -48 -30 -51 -26 -3 -28 -7 -28 -48 l0 -44 60 0 c117 0 160 -36 160 -136 0 -119 -49 -144 -285 -144 l-135 0 0 50 c0 38 4 50 15 50 13 0 15 22 15 135 0 113 -2 135 -15 135 -11 0 -15 12 -15 50 l0 50 131 0 130 0 -3 -47z m5552 -183 l0 -150 -680 0 -680 0 0 150 0 150 680 0 680 0 0 -150z m-4477 110 c-3 -12 -8 -19 -11 -16 -5 6 5 36 12 36 2 0 2 -9 -1 -20z m83 -36 c-3 -9 -19 -14 -43 -13 l-38 2 35 6 c27 5 36 11 39 31 3 19 5 21 9 7 2 -10 1 -25 -2 -33z m765 -14 c-12 -8 -41 -87 -34 -94 4 -3 -1 -6 -9 -6 -13 0 -11 11 11 64 14 36 29 59 33 53 4 -6 3 -14 -1 -17z m-1498 13 c-9 -3 -13 -29 -13 -80 0 -75 0 -75 25 -71 14 3 25 1 25 -3 0 -5 -29 -9 -65 -9 -61 0 -65 1 -64 23 1 16 2 18 6 5 3 -11 14 -18 29 -18 23 0 24 2 24 74 0 63 -3 75 -17 79 -10 3 0 5 22 5 22 0 34 -2 28 -5z m110 0 c-9 -3 -13 -31 -13 -89 0 -60 -3 -84 -12 -84 -10 0 -12 21 -10 81 3 60 0 84 -10 90 -8 6 -1 8 22 8 19 0 29 -3 23 -6z m66 -50 c-7 -52 -20 -73 -44 -73 -5 1 -2 5 8 11 13 8 17 23 17 64 0 39 4 55 13 55 11 0 12 -12 6 -57z m108 51 c-3 -3 -12 -4 -19 -1 -8 3 -5 6 6 6 11 1 17 -2 13 -5z m176 -1 c-9 -3 -13 -29 -13 -78 0 -68 2 -74 23 -78 12 -2 2 -5 -23 -5 -25 0 -39 2 -32 5 8 3 12 29 12 78 0 49 -4 75 -12 78 -7 3 3 5 22 5 19 0 29 -2 23 -5z m76 -5 c-9 -7 -23 -26 -33 -41 -10 -16 -20 -26 -23 -24 -5 6 26 58 42 69 17 13 30 9 14 -4z m74 5 c-8 -3 -13 -25 -13 -59 0 -30 -4 -54 -10 -54 -5 0 -10 24 -10 54 0 34 -5 56 -12 59 -7 3 3 5 22 5 19 0 29 -2 23 -5z m199 -2 c-9 -5 -13 -25 -12 -52 3 -75 0 -119 -7 -119 -5 0 -7 37 -5 81 3 60 0 84 -10 90 -9 6 -3 9 17 9 20 0 26 -3 17 -9z m81 2 c-8 -3 -13 -24 -13 -53 0 -27 -5 -52 -12 -56 -8 -5 -9 0 -5 17 4 13 7 41 7 62 0 29 4 37 18 36 10 0 12 -3 5 -6z m75 0 c-15 -4 -18 -16 -18 -70 0 -37 -3 -63 -7 -60 -7 8 -4 117 3 129 3 5 13 7 22 7 15 -1 15 -2 0 -6z m176 -21 c-6 -4 -19 -34 -28 -66 -14 -48 -15 -60 -4 -67 8 -6 1 -9 -21 -9 -29 0 -32 2 -20 13 9 6 24 41 34 77 23 81 25 84 39 70 8 -8 8 -13 0 -18z m106 -7 c0 -5 -4 -4 -9 3 -5 8 -14 -11 -26 -55 -16 -63 -35 -103 -35 -76 0 6 -3 19 -7 29 -4 11 -3 15 5 10 7 -4 15 9 22 35 21 77 30 95 40 79 6 -8 10 -19 10 -25z m97 28 c-15 -4 -18 -12 -15 -34 4 -23 2 -26 -9 -18 -24 21 -6 60 27 58 10 -1 10 -3 -3 -6z m66 0 c-8 -3 -13 -24 -13 -53 0 -30 -5 -52 -15 -60 -17 -14 -65 -5 -65 12 0 9 3 9 12 0 32 -32 69 7 55 59 -8 28 2 49 22 48 10 0 11 -2 4 -6z m171 -14 c-3 -5 -10 -7 -15 -3 -5 3 -7 10 -3 15 3 5 10 7 15 3 5 -3 7 -10 3 -15z m-1339 -44 c0 -47 -2 -53 -12 -38 -16 21 -16 48 -3 74 6 10 12 19 13 19 1 0 2 -25 2 -55z m427 -20 c-4 -35 -22 -40 -22 -6 0 13 17 41 25 41 1 0 -1 -16 -3 -35z m58 -6 c0 -10 -5 -21 -11 -25 -8 -4 -9 1 -4 15 4 13 1 29 -7 39 -12 15 -11 16 5 3 9 -7 17 -22 17 -32z m427 24 c-4 -3 -7 0 -7 7 0 7 3 10 7 7 3 -4 3 -10 0 -14z m100 -10 c-4 -3 -7 0 -7 7 0 7 3 10 7 7 3 -4 3 -10 0 -14z m-937 -1 c0 -5 -6 -17 -14 -27 -13 -18 -14 -18 -9 8 5 24 23 39 23 19z m210 -53 c0 -3 -6 -11 -12 -17 -10 -8 -13 -2 -13 24 0 30 2 32 13 17 6 -9 12 -20 12 -24z m737 24 c-4 -3 -7 0 -7 7 0 7 3 10 7 7 3 -4 3 -10 0 -14z m270 -10 c-4 -3 -7 0 -7 7 0 7 3 10 7 7 3 -4 3 -10 0 -14z m-1260 -10 c-4 -3 -10 -3 -14 0 -3 4 0 7 7 7 7 0 10 -3 7 -7z m420 0 c-4 -3 -10 -3 -14 0 -3 4 0 7 7 7 7 0 10 -3 7 -7z m50 0 c-4 -3 -10 -3 -14 0 -3 4 0 7 7 7 7 0 10 -3 7 -7z m100 0 c-4 -3 -10 -3 -14 0 -3 4 0 7 7 7 7 0 10 -3 7 -7z m447 -35 c6 -4 -2 -7 -19 -7 -16 0 -24 3 -17 6 6 2 12 12 13 21 0 14 2 14 6 2 3 -8 11 -18 17 -22z m-694 -8 c0 -5 -4 -10 -10 -10 -5 0 -10 5 -10 10 0 6 5 10 10 10 6 0 10 -4 10 -10z"/>
<path d="M6746 522 c-3 -6 -2 -64 3 -104 1 -12 71 -9 71 2 0 6 -4 10 -9 10 -12 0 -21 39 -10 46 15 9 10 41 -7 48 -21 8 -42 8 -48 -2z m44 -22 c0 -5 -7 -10 -15 -10 -8 0 -15 5 -15 10 0 6 7 10 15 10 8 0 15 -4 15 -10z m-10 -66 c0 -8 -5 -12 -10 -9 -6 4 -8 11 -5 16 9 14 15 11 15 -7z"/>
<path d="M5863 493 c-15 -5 -18 -33 -4 -33 5 0 11 5 13 12 3 7 10 8 17 4 10 -6 6 -14 -15 -32 -24 -19 -27 -26 -18 -41 15 -24 48 -23 53 2 3 17 1 18 -13 6 -12 -10 -16 -10 -16 -1 0 6 10 20 23 30 18 15 20 22 11 37 -12 19 -31 25 -51 16z"/>
<path d="M5934 473 c-3 -16 -7 -34 -10 -41 -2 -7 2 -19 8 -26 10 -11 15 -10 28 2 11 12 12 16 2 20 -14 4 -16 38 -2 47 15 9 12 25 -5 25 -8 0 -17 -12 -21 -27z"/>
<path d="M5987 493 c-3 -4 -5 -25 -5 -45 0 -35 2 -38 29 -38 26 0 29 3 29 35 0 19 5 35 11 35 7 0 10 -14 7 -35 -4 -34 -3 -35 33 -35 21 0 39 -5 41 -12 3 -9 10 -7 24 6 13 14 15 21 6 24 -16 5 -16 52 0 52 9 0 9 3 1 11 -17 17 -33 2 -33 -31 0 -22 -4 -28 -20 -27 -24 2 -34 25 -19 43 9 12 4 14 -29 14 -22 0 -47 3 -55 6 -8 3 -17 2 -20 -3z m28 -23 c3 -5 1 -10 -4 -10 -6 0 -11 5 -11 10 0 6 2 10 4 10 3 0 8 -4 11 -10z m5 -40 c0 -5 -2 -10 -4 -10 -3 0 -8 5 -11 10 -3 6 -1 10 4 10 6 0 11 -4 11 -10z"/>
<path d="M6312 491 c-8 -5 -12 -22 -10 -42 2 -29 7 -34 28 -34 18 0 26 6 28 23 3 17 -2 22 -18 22 -12 0 -18 4 -15 11 4 6 14 8 22 5 9 -4 13 -1 11 6 -6 16 -29 21 -46 9z m25 -58 c-4 -3 -10 -3 -14 0 -3 4 0 7 7 7 7 0 10 -3 7 -7z"/>
<path d="M6376 491 c-4 -6 -4 -26 0 -45 l6 -35 102 2 101 2 3 33 c2 20 9 32 18 32 17 0 19 -41 2 -58 -9 -9 2 -12 49 -12 l61 0 4 40 c2 28 0 40 -9 40 -8 0 -13 -12 -13 -30 0 -16 -5 -30 -11 -30 -7 0 -10 12 -7 30 l5 30 -59 0 c-58 0 -58 0 -58 -30 0 -21 -5 -30 -16 -30 -12 0 -15 7 -12 30 4 23 1 30 -12 30 -12 0 -16 -7 -12 -28 3 -23 0 -28 -18 -28 -18 0 -21 5 -18 28 4 25 2 28 -26 28 -17 0 -41 3 -52 6 -12 3 -25 1 -28 -5z m39 -21 c3 -5 -1 -10 -9 -10 -9 0 -16 5 -16 10 0 6 4 10 9 10 6 0 13 -4 16 -10z m45 -14 c0 -14 -4 -28 -10 -31 -6 -4 -10 7 -10 24 0 17 5 31 10 31 6 0 10 -11 10 -24z m200 0 c0 -14 -4 -28 -10 -31 -6 -4 -10 7 -10 24 0 17 5 31 10 31 6 0 10 -11 10 -24z m-240 -20 c0 -3 -4 -8 -10 -11 -5 -3 -10 -1 -10 4 0 6 5 11 10 11 6 0 10 -2 10 -4z"/>
<path d="M6610 390 c0 -5 7 -10 15 -10 8 0 15 5 15 10 0 6 -7 10 -15 10 -8 0 -15 -4 -15 -10z"/>
</g>
<g id="layer103" fill="#969696" stroke="none">
<path d="M0 450 l0 -450 3640 0 3640 0 0 450 0 450 -3640 0 -3640 0 0 -450z m498 183 c-3 -44 -5 -48 -30 -51 -26 -3 -28 -7 -28 -48 l0 -44 65 0 c117 0 160 -41 153 -146 -7 -113 -50 -134 -277 -134 l-141 0 0 50 c0 38 4 50 15 50 13 0 15 22 15 135 0 113 -2 135 -15 135 -11 0 -15 12 -15 50 l0 50 131 0 130 0 -3 -47z m412 -3 c0 -38 -4 -50 -15 -50 -11 0 -15 -12 -15 -50 l0 -50 45 0 45 0 0 50 c0 38 -4 50 -15 50 -11 0 -15 12 -15 50 l0 50 115 0 115 0 0 -50 c0 -38 -4 -50 -15 -50 -13 0 -15 -22 -15 -135 0 -113 2 -135 15 -135 11 0 15 -12 15 -50 l0 -50 -115 0 -115 0 0 50 c0 38 4 50 15 50 11 0 15 12 15 45 l0 45 -45 0 -45 0 0 -45 c0 -33 4 -45 15 -45 11 0 15 -12 15 -50 l0 -50 -115 0 -115 0 0 50 c0 38 4 50 15 50 13 0 15 22 15 135 0 113 -2 135 -15 135 -11 0 -15 12 -15 50 l0 50 115 0 115 0 0 -50z m548 3 c-3 -44 -5 -48 -30 -51 -26 -3 -28 -7 -28 -48 l0 -44 60 0 c117 0 160 -36 160 -136 0 -119 -49 -144 -285 -144 l-135 0 0 50 c0 38 4 50 15 50 13 0 15 22 15 135 0 113 -2 135 -15 135 -11 0 -15 12 -15 50 l0 50 131 0 130 0 -3 -47z m5552 -183 l0 -150 -680 0 -680 0 0 150 0 150 680 0 680 0 0 -150z m-4450 127 c-38 -19 -32 -41 13 -45 31 -3 37 0 37 17 0 10 -5 22 -10 24 -6 3 -5 4 2 3 6 -1 16 -9 22 -18 14 -23 -9 -48 -45 -48 -38 0 -39 -28 -1 -32 22 -2 28 -9 30 -33 2 -16 8 -33 14 -36 6 -4 -8 -7 -30 -7 -53 -1 -64 14 -57 77 3 30 1 51 -5 51 -6 0 -10 9 -10 20 0 20 24 39 50 40 8 0 4 -6 -10 -13z m832 -73 c14 -38 31 -76 36 -84 7 -12 5 -16 -9 -17 -11 -1 -17 2 -14 7 7 11 -15 90 -25 90 -10 0 -34 -76 -27 -87 3 -5 -3 -10 -14 -10 -24 -2 -24 -4 6 67 14 33 25 62 25 65 0 3 -12 17 -27 31 -27 25 -27 25 -2 16 18 -7 31 -27 51 -78z m-1509 19 c-9 -3 -13 -29 -13 -79 0 -62 3 -74 16 -74 9 0 23 8 31 18 13 16 14 16 11 -3 -3 -17 -12 -20 -71 -23 -64 -3 -67 -2 -67 20 1 20 2 21 11 6 5 -10 19 -18 29 -18 18 0 20 7 20 74 0 63 -3 75 -17 79 -10 3 0 5 22 5 22 0 34 -2 28 -5z m110 0 c-18 -7 -17 -88 2 -103 26 -21 45 5 45 61 0 44 2 49 23 48 12 0 16 -3 10 -6 -8 -2 -13 -22 -13 -44 0 -68 -34 -101 -68 -67 -9 9 -12 4 -12 -25 0 -32 -3 -37 -22 -36 -13 0 -17 3 -10 6 8 3 12 30 12 83 0 53 -4 80 -12 83 -7 3 3 5 22 5 19 0 29 -2 23 -5z m191 -2 c4 -5 -3 -7 -14 -4 -23 6 -50 -12 -50 -33 0 -10 13 -14 40 -14 33 0 40 -3 40 -19 0 -24 -26 -51 -47 -51 -46 0 -70 74 -36 112 17 19 58 24 67 9z m159 2 c-15 -6 -18 -73 -3 -73 5 0 21 18 35 40 14 22 32 40 41 40 11 0 9 -8 -10 -33 -30 -39 -31 -43 -11 -63 36 -37 4 -74 -63 -73 -26 0 -41 3 -34 6 8 3 12 29 12 78 0 49 -4 75 -12 78 -7 3 3 5 22 5 19 0 29 -2 23 -5z m150 0 c-9 -3 -13 -26 -13 -64 0 -55 -2 -59 -22 -58 -13 0 -17 3 -10 6 7 3 12 25 12 58 0 33 -5 55 -12 58 -7 3 3 5 22 5 19 0 29 -2 23 -5z m205 -4 c-37 -21 -12 -120 26 -106 12 5 16 20 16 62 0 49 2 55 21 55 16 0 19 -3 11 -13 -6 -7 -12 -32 -14 -56 -4 -52 -26 -73 -58 -53 -19 11 -20 10 -20 -23 0 -21 -5 -35 -12 -35 -10 0 -12 21 -10 81 3 60 0 84 -10 90 -8 6 1 9 27 9 32 -1 36 -3 23 -11z m155 1 c-20 -8 -23 -17 -23 -60 0 -40 3 -50 18 -51 16 -1 16 -2 0 -6 -10 -2 -18 -10 -18 -16 0 -7 -4 -6 -10 3 -11 17 -13 83 -4 118 5 16 14 22 33 21 25 0 25 0 4 -9z m176 -12 c5 -13 11 -39 14 -58 l6 -35 -11 38 c-7 20 -14 37 -18 37 -13 0 -37 -109 -27 -119 8 -8 1 -11 -22 -11 -28 0 -31 2 -18 14 8 8 22 46 33 85 19 75 29 86 43 49z m112 -50 c12 -40 28 -79 37 -85 13 -11 11 -13 -19 -13 -24 0 -30 3 -20 9 12 8 12 17 1 58 -20 76 -26 80 -38 30 -21 -80 -32 -103 -42 -87 -12 19 -13 43 -1 36 5 -3 17 23 26 59 10 36 22 65 26 65 5 0 18 -33 30 -72z m87 61 c-20 -11 -25 -49 -6 -49 6 0 9 -2 6 -5 -12 -12 -38 9 -38 29 0 28 8 36 34 36 19 -1 19 -2 4 -11z m65 4 c-8 -3 -13 -25 -13 -59 0 -49 -2 -54 -25 -60 -14 -3 -32 -4 -40 0 -17 6 -21 26 -5 26 6 0 10 -4 10 -10 0 -5 9 -10 21 -10 19 0 21 5 17 54 -1 30 0 52 5 49 4 -2 7 1 7 6 0 6 8 11 18 10 10 0 12 -3 5 -6z m175 -5 c-6 -18 -28 -21 -28 -4 0 9 7 16 16 16 9 0 14 -5 12 -12z m-988 -158 c0 -5 -4 -10 -10 -10 -5 0 -10 5 -10 10 0 6 5 10 10 10 6 0 10 -4 10 -10z"/>
<path d="M6746 478 c9 -63 11 -68 37 -68 20 0 23 4 19 25 -2 14 -11 25 -21 26 -10 0 -8 3 7 10 35 13 25 43 -16 47 l-32 3 6 -43z m44 22 c0 -5 -7 -10 -15 -10 -8 0 -15 5 -15 10 0 6 7 10 15 10 8 0 15 -4 15 -10z m-9 -63 c-1 -12 -15 -9 -19 4 -3 6 1 10 8 8 6 -3 11 -8 11 -12z"/>
<path d="M5855 481 c-3 -5 -1 -12 5 -16 5 -3 10 -1 10 4 0 6 7 11 15 11 21 0 19 -18 -5 -32 -11 -7 -20 -23 -20 -35 0 -18 6 -23 25 -23 14 0 25 5 25 11 0 5 -4 7 -10 4 -5 -3 -15 -3 -21 1 -7 4 -1 14 16 28 18 15 24 27 20 39 -7 18 -50 24 -60 8z"/>
<path d="M5937 453 c-5 -43 2 -56 23 -43 10 7 11 10 3 10 -8 0 -13 13 -13 29 0 16 6 32 13 34 7 4 6 6 -4 6 -12 1 -18 -10 -22 -36z"/>
<path d="M5980 471 c0 -11 9 -23 20 -26 21 -7 28 -25 10 -25 -5 0 -10 5 -10 11 0 5 -5 7 -11 3 -16 -9 5 -27 27 -22 13 2 21 15 25 41 6 37 5 37 -28 37 -26 0 -33 -4 -33 -19z m40 -7 c0 -8 -4 -12 -10 -9 -5 3 -10 10 -10 16 0 5 5 9 10 9 6 0 10 -7 10 -16z"/>
<path d="M6065 450 c-1 -37 0 -39 27 -36 16 2 31 0 34 -5 2 -4 11 -6 19 -3 11 5 12 10 2 25 -9 15 -9 23 1 39 10 17 10 20 -3 20 -10 0 -15 -10 -15 -33 0 -26 -4 -33 -20 -33 -22 0 -38 36 -25 55 3 6 0 11 -7 11 -8 0 -13 -14 -13 -40z"/>
<path d="M6215 440 c0 -38 4 -50 15 -50 12 0 14 10 12 45 -4 47 10 59 36 33 9 -9 12 -8 12 5 0 13 -9 17 -37 17 l-38 0 0 -50z"/>
<path d="M6304 476 c-3 -8 -4 -25 -2 -38 4 -29 51 -33 56 -5 2 12 -3 17 -17 17 -13 0 -21 6 -21 16 0 11 6 15 20 11 11 -3 20 -1 20 4 0 15 -50 10 -56 -5z m36 -46 c0 -5 -4 -10 -10 -10 -5 0 -10 5 -10 10 0 6 5 10 10 10 6 0 10 -4 10 -10z"/>
<path d="M6375 480 c-3 -5 -3 -16 2 -22 4 -7 8 -20 8 -28 0 -8 9 -15 20 -15 15 0 21 9 26 38 6 35 5 37 -22 37 -15 0 -31 -4 -34 -10z m43 -19 c3 -8 -1 -12 -9 -9 -7 2 -15 10 -17 17 -3 8 1 12 9 9 7 -2 15 -10 17 -17z m2 -25 c0 -11 -19 -15 -25 -6 -3 5 1 10 9 10 9 0 16 -2 16 -4z"/>
<path d="M6455 451 l0 -38 62 -2 c61 -2 63 -1 69 26 3 15 7 34 10 41 2 6 -3 12 -11 12 -8 0 -15 -13 -17 -32 -4 -41 -23 -38 -23 2 0 21 -5 30 -15 30 -12 0 -15 -8 -12 -34 4 -31 2 -34 -16 -29 -26 6 -36 31 -21 49 9 11 7 14 -7 14 -15 0 -19 -8 -19 -39z"/>
<path d="M6615 450 c0 -48 12 -54 17 -8 2 17 9 33 17 36 10 3 12 -4 9 -31 -4 -34 -2 -35 26 -34 27 2 31 6 37 40 3 20 2 37 -3 37 -4 0 -8 -10 -8 -22 0 -13 -4 -29 -9 -36 -12 -20 -34 12 -26 38 6 17 2 20 -27 20 -32 0 -33 -1 -33 -40z"/>
<path d="M2550 440 c0 -23 4 -30 20 -30 16 0 20 7 20 30 0 23 -4 30 -20 30 -16 0 -20 -7 -20 -30z"/>
<path d="M2122 444 c5 -27 37 -42 48 -24 18 27 11 40 -21 40 -23 0 -30 -4 -27 -16z"/>
<path d="M2330 405 c0 -30 3 -35 24 -35 26 0 40 23 31 51 -4 12 -16 19 -31 19 -21 0 -24 -5 -24 -35z"/>
</g>
<g id="layer104" fill="#b1b1b1" stroke="none">
<path d="M0 450 l0 -450 3640 0 3640 0 0 450 0 450 -3640 0 -3640 0 0 -450z m498 183 c-3 -44 -5 -48 -30 -51 -26 -3 -28 -7 -28 -48 l0 -44 65 0 c117 0 160 -41 153 -146 -7 -113 -50 -134 -277 -134 l-141 0 0 50 c0 38 4 50 15 50 13 0 15 22 15 135 0 113 -2 135 -15 135 -11 0 -15 12 -15 50 l0 50 131 0 130 0 -3 -47z m412 -3 c0 -38 -4 -50 -15 -50 -11 0 -15 -12 -15 -50 l0 -50 45 0 45 0 0 50 c0 38 -4 50 -15 50 -11 0 -15 12 -15 50 l0 50 115 0 115 0 0 -50 c0 -38 -4 -50 -15 -50 -13 0 -15 -22 -15 -135 0 -113 2 -135 15 -135 11 0 15 -12 15 -50 l0 -50 -115 0 -115 0 0 50 c0 38 4 50 15 50 11 0 15 12 15 45 l0 45 -45 0 -45 0 0 -45 c0 -33 4 -45 15 -45 11 0 15 -12 15 -50 l0 -50 -115 0 -115 0 0 50 c0 38 4 50 15 50 13 0 15 22 15 135 0 113 -2 135 -15 135 -11 0 -15 12 -15 50 l0 50 115 0 115 0 0 -50z m548 3 c-3 -44 -5 -48 -30 -51 -26 -3 -28 -7 -28 -48 l0 -44 60 0 c117 0 160 -36 160 -136 0 -119 -49 -144 -285 -144 l-135 0 0 50 c0 38 4 50 15 50 13 0 15 22 15 135 0 113 -2 135 -15 135 -11 0 -15 12 -15 50 l0 50 131 0 130 0 -3 -47z m5552 -183 l0 -150 -680 0 -680 0 0 150 0 150 680 0 680 0 0 -150z m-4400 122 c34 -28 20 -62 -27 -62 -40 0 -42 -21 -2 -30 18 -4 25 -13 27 -38 2 -18 8 -30 13 -27 5 4 9 0 9 -8 0 -14 -14 -14 -78 -1 -22 4 -23 8 -19 64 3 33 1 60 -4 60 -14 0 -11 48 4 53 25 11 56 6 77 -11z m740 8 c10 -5 30 -42 46 -82 15 -40 31 -79 37 -85 7 -10 2 -13 -19 -13 -20 0 -25 3 -17 11 11 11 -4 79 -18 79 -11 0 -32 -68 -24 -80 4 -6 -4 -10 -19 -10 l-25 0 30 65 c16 35 29 67 29 70 0 3 -12 17 -26 30 -28 26 -26 32 6 15z m-1462 -61 c-25 -14 -27 -149 -3 -149 9 0 18 7 21 15 9 22 24 18 24 -5 0 -18 -7 -20 -70 -20 -66 0 -70 1 -70 23 1 20 2 21 14 5 26 -35 36 -20 36 56 0 50 -4 76 -12 79 -7 3 7 6 32 6 35 0 41 -2 28 -10z m103 -3 c-19 -23 -10 -90 13 -94 25 -5 36 14 36 66 0 37 3 42 23 41 12 0 16 -3 10 -6 -8 -3 -13 -24 -13 -53 0 -54 -17 -75 -55 -68 -22 5 -25 2 -25 -23 0 -23 -4 -29 -22 -29 -17 0 -19 3 -10 12 7 7 12 40 12 78 0 38 -5 71 -12 78 -9 9 -5 12 21 12 28 0 31 -2 22 -14z m203 -1 c4 -13 2 -13 -14 -5 -24 13 -26 13 -44 -6 -25 -25 -19 -34 24 -34 35 0 40 -3 40 -23 0 -31 -18 -47 -52 -47 -31 0 -48 23 -48 65 0 44 17 65 54 65 21 0 36 -6 40 -15z m154 4 c-11 -6 -18 -22 -18 -40 0 -38 12 -35 42 11 22 33 27 35 83 38 46 1 56 0 43 -8 -14 -8 -18 -24 -18 -65 0 -51 -2 -55 -22 -54 -13 0 -17 3 -10 6 7 3 12 25 12 59 0 46 -3 54 -19 54 -11 0 -28 -14 -39 -32 -18 -29 -19 -35 -6 -49 17 -19 18 -51 2 -67 -7 -7 -37 -12 -67 -12 -43 1 -52 3 -38 11 13 8 17 24 17 74 0 50 -4 66 -17 74 -14 8 -8 10 27 10 35 0 41 -2 28 -10z m347 -6 c-19 -19 -15 -81 6 -94 26 -16 39 3 39 57 0 48 2 54 21 54 16 0 19 -3 11 -13 -6 -7 -12 -35 -14 -62 l-3 -50 -37 1 c-35 1 -38 -1 -38 -27 0 -24 -4 -29 -22 -28 -13 0 -17 3 -10 6 8 3 12 30 12 83 0 53 -4 80 -12 83 -7 3 4 6 25 6 36 1 37 0 22 -16z m165 10 c-23 -9 -30 -24 -30 -66 0 -30 5 -40 23 -47 l22 -9 -22 0 c-13 -1 -23 -6 -23 -11 0 -7 -5 -6 -13 1 -7 7 -11 29 -9 53 6 76 10 86 40 85 16 0 21 -3 12 -6z m174 -20 c4 -16 12 -46 18 -68 l11 -40 18 64 c10 35 20 66 23 68 12 12 24 -11 41 -74 9 -37 25 -74 33 -80 13 -11 11 -13 -19 -13 -22 0 -29 3 -21 9 11 7 11 19 -4 72 l-18 63 -20 -72 c-10 -40 -24 -71 -30 -69 -5 2 -16 28 -24 58 -7 30 -17 58 -21 62 -10 10 -36 -97 -27 -112 5 -7 -4 -11 -26 -11 -18 0 -28 4 -21 8 6 4 21 42 34 85 23 80 42 97 53 50z m222 16 c4 -8 0 -9 -15 -4 -30 9 -41 -23 -15 -42 18 -14 18 -14 -6 -11 -25 3 -37 26 -26 54 6 17 52 19 62 3z m36 -2 c-6 -7 -12 -35 -14 -62 -3 -47 -5 -50 -32 -53 -35 -4 -56 12 -38 30 9 9 12 8 12 -6 0 -11 6 -16 18 -14 12 2 18 14 20 38 4 59 12 80 28 80 12 0 14 -3 6 -13z m178 -2 c0 -8 -7 -15 -15 -15 -8 0 -15 7 -15 15 0 8 7 15 15 15 8 0 15 -7 15 -15z m-990 -150 c0 -8 -4 -15 -10 -15 -5 0 -10 7 -10 15 0 8 5 15 10 15 6 0 10 -7 10 -15z"/>
<path d="M6747 513 c-3 -5 -2 -28 2 -53 5 -39 9 -45 32 -47 22 -1 26 2 22 18 -7 25 -21 34 -19 12 0 -9 -5 -18 -13 -21 -11 -3 -12 2 -7 23 4 15 2 33 -4 41 -7 7 -9 18 -5 24 3 5 4 10 1 10 -3 0 -7 -3 -9 -7z"/>
<path d="M6789 507 c6 -8 9 -17 6 -21 -3 -3 0 -2 6 3 12 10 4 31 -13 31 -7 0 -7 -4 1 -13z"/>
<path d="M5860 479 c0 -5 5 -7 10 -4 6 3 10 8 10 11 0 2 -4 4 -10 4 -5 0 -10 -5 -10 -11z"/>
<path d="M5896 475 c4 -10 -1 -22 -15 -31 -22 -16 -28 -39 -11 -49 5 -3 7 0 4 9 -3 9 3 20 15 28 22 13 28 42 11 53 -6 3 -7 -1 -4 -10z"/>
<path d="M5941 443 c1 -53 6 -49 11 10 2 20 0 37 -4 37 -4 0 -8 -21 -7 -47z"/>
<path d="M5984 479 c-3 -6 -1 -16 5 -22 9 -9 11 -8 5 7 -5 14 -3 17 12 14 26 -5 26 -54 0 -51 -13 1 -15 -2 -7 -10 15 -15 41 10 41 42 0 21 -5 27 -25 29 -13 1 -27 -3 -31 -9z"/>
<path d="M6130 450 c0 -22 3 -40 8 -40 4 0 7 18 7 40 0 22 -3 40 -7 40 -5 0 -8 -18 -8 -40z"/>
<path d="M6215 440 c0 -33 4 -50 13 -50 8 0 12 16 12 45 0 38 3 45 19 45 11 0 22 -6 24 -12 3 -8 6 -6 6 5 1 13 -7 17 -36 17 l-38 0 0 -50z"/>
<path d="M6304 464 c-9 -35 18 -63 40 -44 18 14 21 30 6 30 -5 0 -9 -6 -7 -12 1 -7 -4 -13 -12 -13 -8 0 -16 10 -17 23 -3 16 3 25 19 32 l22 9 -22 0 c-16 1 -24 -6 -29 -25z"/>
<path d="M6381 468 c0 -16 2 -18 6 -8 3 8 11 18 17 22 7 5 4 8 -6 8 -12 0 -18 -7 -17 -22z"/>
<path d="M6420 454 c0 -32 -2 -36 -21 -31 -16 4 -19 3 -11 -5 18 -18 39 -1 44 36 2 20 0 36 -4 36 -4 0 -8 -16 -8 -36z"/>
<path d="M6458 456 c4 -36 28 -54 46 -35 8 8 6 10 -9 7 -17 -2 -20 3 -20 30 0 17 -5 32 -10 32 -7 0 -9 -14 -7 -34z"/>
<path d="M6525 455 c0 -19 3 -35 6 -35 4 0 9 16 11 35 2 20 0 35 -7 35 -5 0 -10 -16 -10 -35z"/>
<path d="M6570 456 c0 -19 -5 -37 -10 -39 -6 -3 -5 -4 2 -3 14 3 30 76 16 76 -4 0 -8 -15 -8 -34z"/>
<path d="M6658 455 c4 -33 29 -54 51 -41 11 7 20 76 10 76 -4 0 -9 -15 -11 -32 -2 -21 -8 -33 -18 -33 -10 0 -15 10 -15 33 0 17 -5 32 -10 32 -7 0 -9 -14 -7 -35z"/>
<path d="M6095 420 c-3 -5 -1 -10 4 -10 6 0 11 5 11 10 0 6 -2 10 -4 10 -3 0 -8 -4 -11 -10z"/>
<path d="M5895 400 c-3 -5 -1 -10 4 -10 6 0 11 5 11 10 0 6 -2 10 -4 10 -3 0 -8 -4 -11 -10z"/>
<path d="M2547 573 c-4 -3 -7 -15 -7 -25 0 -13 8 -18 29 -18 31 0 49 16 35 30 -14 12 -50 21 -57 13z"/>
<path d="M2552 443 c2 -17 9 -28 18 -28 9 0 16 11 18 28 3 22 -1 27 -18 27 -17 0 -21 -5 -18 -27z"/>
<path d="M2130 430 c6 -11 15 -20 20 -20 5 0 14 9 20 20 10 18 8 20 -20 20 -28 0 -30 -2 -20 -20z"/>
<path d="M2330 405 c0 -28 4 -35 20 -35 25 0 41 30 29 53 -6 9 -19 17 -29 17 -16 0 -20 -7 -20 -35z"/>
</g>
<g id="layer105" fill="#d5d5d5" stroke="none">
<path d="M0 450 l0 -450 3640 0 3640 0 0 450 0 450 -3640 0 -3640 0 0 -450z m498 183 c-3 -44 -5 -48 -30 -51 -26 -3 -28 -7 -28 -48 l0 -44 65 0 c117 0 160 -41 153 -146 -7 -113 -50 -134 -277 -134 l-141 0 0 50 c0 38 4 50 15 50 13 0 15 22 15 135 0 113 -2 135 -15 135 -11 0 -15 12 -15 50 l0 50 131 0 130 0 -3 -47z m412 -3 c0 -38 -4 -50 -15 -50 -11 0 -15 -12 -15 -50 l0 -50 45 0 45 0 0 50 c0 38 -4 50 -15 50 -11 0 -15 12 -15 50 l0 50 115 0 115 0 0 -50 c0 -38 -4 -50 -15 -50 -13 0 -15 -22 -15 -135 0 -113 2 -135 15 -135 11 0 15 -12 15 -50 l0 -50 -115 0 -115 0 0 50 c0 38 4 50 15 50 11 0 15 12 15 45 l0 45 -45 0 -45 0 0 -45 c0 -33 4 -45 15 -45 11 0 15 -12 15 -50 l0 -50 -115 0 -115 0 0 50 c0 38 4 50 15 50 13 0 15 22 15 135 0 113 -2 135 -15 135 -11 0 -15 12 -15 50 l0 50 115 0 115 0 0 -50z m548 3 c-3 -44 -5 -48 -30 -51 -26 -3 -28 -7 -28 -48 l0 -44 60 0 c117 0 160 -36 160 -136 0 -119 -49 -144 -285 -144 l-135 0 0 50 c0 38 4 50 15 50 13 0 15 22 15 135 0 113 -2 135 -15 135 -11 0 -15 12 -15 50 l0 50 131 0 130 0 -3 -47z m5552 -183 l0 -150 -680 0 -680 0 0 150 0 150 680 0 680 0 0 -150z m-4396 127 c27 -20 18 -61 -14 -65 -50 -6 -54 -12 -19 -30 27 -14 34 -23 32 -44 -1 -21 2 -25 14 -21 11 4 14 2 11 -8 -3 -10 -17 -13 -49 -10 -24 1 -47 5 -51 7 -4 3 -7 29 -6 60 1 30 -4 60 -10 66 -16 16 -15 23 4 42 19 19 64 21 88 3z m749 -5 c9 -10 25 -44 36 -74 11 -31 24 -65 30 -77 11 -19 9 -21 -16 -21 -19 0 -24 3 -16 11 11 11 -3 79 -17 79 -10 0 -32 -69 -25 -80 4 -6 -7 -10 -26 -10 -30 0 -31 1 -17 18 22 23 48 89 48 118 0 17 -8 28 -25 34 -30 11 -32 20 -7 20 11 0 26 -8 35 -18z m-1166 -58 c2 -6 -12 -8 -32 -6 -30 4 -35 1 -35 -17 0 -17 6 -21 34 -21 42 0 49 -8 33 -41 -15 -29 -67 -38 -86 -15 -14 17 -18 77 -6 96 17 28 83 30 92 4z m-309 5 c-25 -14 -27 -149 -3 -149 9 0 18 7 21 15 9 23 26 18 22 -7 -3 -21 -9 -23 -70 -26 -67 -3 -68 -3 -68 23 0 27 14 34 24 10 3 -8 10 -15 16 -15 15 0 13 147 -2 153 -7 3 7 6 32 6 35 0 41 -2 28 -10z m110 0 c-32 -18 -21 -99 13 -99 16 0 19 8 19 55 0 53 1 55 27 55 21 0 24 -3 15 -12 -7 -7 -12 -30 -12 -52 0 -56 -11 -70 -49 -64 -29 4 -31 3 -31 -29 0 -25 -4 -33 -17 -33 -16 0 -18 9 -14 86 2 65 0 89 -10 95 -9 6 2 9 31 9 35 -1 41 -3 28 -11z m350 0 c-21 -11 -24 -59 -5 -59 7 0 21 16 31 35 19 34 21 35 78 35 54 0 58 -1 44 -16 -10 -10 -16 -33 -16 -65 0 -43 -2 -49 -21 -49 -17 0 -19 3 -10 14 7 8 11 34 9 58 -4 55 -27 62 -56 16 -18 -29 -19 -35 -6 -49 17 -19 18 -51 2 -67 -7 -7 -36 -12 -66 -12 -49 0 -52 1 -38 16 23 23 22 129 -1 143 -14 8 -8 10 27 10 35 0 41 -2 28 -10z m354 2 c-9 -5 -12 -24 -10 -52 2 -36 7 -44 23 -44 17 0 20 8 23 53 2 42 6 52 21 52 16 0 17 -6 10 -54 -9 -70 -15 -79 -50 -74 -26 4 -29 2 -29 -24 0 -24 -4 -28 -27 -27 -16 0 -22 3 -15 6 8 3 12 30 12 83 0 53 -4 80 -12 83 -7 3 5 6 27 6 25 0 35 -2 27 -8z m156 2 c-24 -6 -26 -103 -3 -103 8 0 15 -4 15 -10 0 -5 -7 -10 -15 -10 -8 0 -15 -7 -15 -15 0 -21 -16 -19 -26 3 -7 17 -6 121 3 135 2 4 16 6 31 6 17 -1 21 -3 10 -6z m187 -55 l18 -63 19 63 c11 36 24 62 32 62 8 0 21 -28 32 -72 10 -39 25 -77 32 -85 11 -11 8 -13 -20 -13 -20 0 -28 3 -21 8 10 6 9 21 -4 67 -18 64 -18 64 -43 -32 -15 -59 -34 -54 -49 12 -7 30 -16 57 -20 59 -4 3 -13 -18 -20 -46 -11 -42 -11 -52 0 -59 9 -6 1 -9 -25 -9 -30 0 -36 3 -28 13 5 6 20 45 32 85 12 40 28 72 35 72 7 0 20 -28 30 -62z m245 9 c-7 -67 -14 -77 -56 -77 -27 0 -34 4 -34 20 0 24 9 26 25 3 7 -9 17 -13 23 -9 22 13 12 33 -20 42 -32 10 -45 31 -34 59 3 9 21 14 53 13 l49 0 -6 -51z m180 38 c0 -8 -7 -15 -15 -15 -8 0 -15 7 -15 15 0 8 7 15 15 15 8 0 15 -7 15 -15z m-982 -153 c2 -7 -3 -12 -12 -12 -9 0 -16 7 -16 16 0 17 22 14 28 -4z"/>
<path d="M440 360 c0 -41 3 -50 18 -50 25 0 42 20 42 50 0 30 -17 50 -42 50 -15 0 -18 -9 -18 -50z"/>
<path d="M1400 360 c0 -41 3 -50 18 -50 25 0 42 20 42 50 0 30 -17 50 -42 50 -15 0 -18 -9 -18 -50z"/>
<path d="M6745 509 c-4 -6 -5 -12 -2 -15 2 -3 7 2 10 11 7 17 1 20 -8 4z"/>
<path d="M6789 507 c6 -8 7 -18 3 -22 -4 -5 -2 -5 5 -1 14 8 6 36 -9 36 -7 0 -6 -5 1 -13z"/>
<path d="M5860 480 c0 -7 3 -10 7 -7 3 4 3 10 0 14 -4 3 -7 0 -7 -7z"/>
<path d="M5896 475 c4 -10 -1 -22 -15 -31 -22 -16 -28 -39 -12 -48 5 -4 7 3 4 13 -3 13 2 21 16 26 22 7 29 39 11 50 -6 3 -7 -1 -4 -10z"/>
<path d="M5943 445 c0 -27 2 -38 4 -22 2 15 2 37 0 50 -2 12 -4 0 -4 -28z"/>
<path d="M5984 479 c-3 -6 -2 -15 3 -20 5 -5 9 -1 9 11 0 23 -2 24 -12 9z"/>
<path d="M6025 481 c-3 -5 -1 -12 5 -16 5 -3 10 1 10 9 0 18 -6 21 -15 7z"/>
<path d="M6068 455 c2 -19 5 -35 7 -35 2 0 5 16 7 35 2 21 0 35 -7 35 -7 0 -9 -14 -7 -35z"/>
<path d="M6134 476 c-3 -8 -4 -27 -2 -43 3 -23 5 -20 9 15 5 43 2 53 -7 28z"/>
<path d="M6220 440 c0 -27 5 -50 10 -50 6 0 10 20 10 44 0 26 5 46 13 49 6 3 2 6 -10 6 -21 1 -23 -4 -23 -49z"/>
<path d="M6273 483 c4 -3 10 -3 14 0 3 4 0 7 -7 7 -7 0 -10 -3 -7 -7z"/>
<path d="M6304 464 c-4 -14 -2 -30 4 -36 8 -8 10 -4 6 16 -3 21 0 28 18 36 l23 9 -22 0 c-16 1 -24 -6 -29 -25z"/>
<path d="M6380 470 c0 -11 2 -20 4 -20 2 0 6 9 9 20 3 11 1 20 -4 20 -5 0 -9 -9 -9 -20z"/>
<path d="M6420 455 c0 -19 2 -35 4 -35 2 0 6 16 8 35 2 19 0 35 -4 35 -4 0 -8 -16 -8 -35z"/>
<path d="M6458 455 c2 -19 5 -35 7 -35 2 0 5 16 7 35 2 21 0 35 -7 35 -7 0 -9 -14 -7 -35z"/>
<path d="M6528 455 c2 -19 6 -35 8 -35 2 0 4 16 4 35 0 19 -4 35 -8 35 -4 0 -6 -16 -4 -35z"/>
<path d="M6568 451 c-2 -22 0 -37 3 -35 9 5 17 74 8 74 -4 0 -9 -18 -11 -39z"/>
<path d="M6618 455 c2 -19 5 -35 7 -35 2 0 5 16 7 35 2 21 0 35 -7 35 -7 0 -9 -14 -7 -35z"/>
<path d="M6658 455 c2 -19 7 -35 11 -35 3 0 6 16 6 35 0 19 -5 35 -10 35 -7 0 -9 -15 -7 -35z"/>
<path d="M6710 462 c0 -15 -6 -34 -12 -42 -11 -12 -10 -12 3 -2 18 13 31 72 17 72 -4 0 -8 -13 -8 -28z"/>
<path d="M6753 445 c-3 -9 -3 -18 -1 -21 3 -3 8 4 11 16 6 23 -1 27 -10 5z"/>
<path d="M6786 447 c3 -10 9 -15 12 -12 3 3 0 11 -7 18 -10 9 -11 8 -5 -6z"/>
<path d="M6023 438 c1 -7 -6 -12 -17 -11 -13 1 -15 -2 -7 -10 7 -7 15 -6 26 3 17 14 20 30 5 30 -5 0 -9 -6 -7 -12z"/>
<path d="M6346 433 c-6 -14 -5 -15 5 -6 7 7 10 15 7 18 -3 3 -9 -2 -12 -12z"/>
<path d="M5894 398 c-4 -7 -3 -8 4 -4 12 7 16 16 8 16 -3 0 -8 -5 -12 -12z"/>
<path d="M6620 390 c0 -7 3 -10 7 -7 3 4 3 10 0 14 -4 3 -7 0 -7 -7z"/>
<path d="M2540 550 c0 -18 5 -21 33 -18 20 2 32 8 32 18 0 10 -12 16 -32 18 -28 3 -33 0 -33 -18z"/>
<path d="M2554 455 c-8 -21 3 -48 19 -43 19 7 22 58 2 58 -8 0 -18 -7 -21 -15z"/>
<path d="M2130 436 c0 -23 17 -28 34 -10 21 21 20 24 -9 24 -15 0 -25 -6 -25 -14z"/>
<path d="M2330 405 c0 -32 3 -36 23 -33 17 2 22 10 22 33 0 23 -5 31 -22 33 -20 3 -23 -1 -23 -33z"/>
<path d="M3221 510 c-8 -4 -11 -15 -8 -24 8 -20 47 -21 47 -2 0 20 -24 36 -39 26z"/>
</g>
<g id="layer106" fill="#f1f1f1" stroke="none">
<path d="M1610 886 c0 -8 -5 -16 -11 -18 -6 -2 -13 -28 -15 -58 -2 -30 -6 -73 -8 -95 -3 -22 -7 -87 -10 -144 -6 -90 -4 -102 9 -97 9 3 15 0 15 -10 0 -8 5 -12 10 -9 6 3 10 -3 10 -14 0 -10 4 -21 8 -23 5 -1 5 -34 0 -73 -4 -38 -8 -81 -9 -95 0 -22 -1 -23 -8 -6 -11 28 -26 1 -22 -41 2 -22 -2 -33 -11 -33 -8 0 -6 -4 5 -11 11 -6 16 -20 15 -37 -1 -15 4 -49 11 -75 l14 -47 2022 0 2023 0 11 48 c18 74 36 205 33 229 -2 17 -10 23 -28 23 l-24 0 0 150 0 150 29 0 28 0 -8 53 c-6 33 -5 53 1 55 13 5 13 42 0 42 -5 0 -12 17 -15 38 -3 20 -10 45 -16 54 -5 10 -9 27 -9 38 0 20 -2 20 -2025 20 -1740 0 -2025 -2 -2025 -14z m1001 -306 c21 -12 25 -50 7 -68 -7 -7 -26 -12 -42 -13 l-31 -1 32 -9 c33 -10 53 -45 38 -68 -4 -7 0 -8 11 -4 12 4 15 2 12 -8 -3 -10 -18 -13 -49 -11 -56 5 -74 21 -64 59 10 33 8 50 -7 80 -21 43 40 71 93 43z m752 -4 c8 -8 24 -43 37 -78 13 -35 27 -67 32 -72 15 -17 9 -26 -18 -26 -20 0 -25 4 -20 16 7 18 -3 64 -13 64 -4 0 -13 -12 -20 -26 -9 -20 -9 -30 0 -40 9 -12 5 -14 -26 -14 -36 0 -37 1 -23 18 9 9 24 40 34 69 15 43 16 54 5 67 -7 9 -20 16 -27 16 -8 0 -14 5 -14 10 0 15 37 12 53 -4z m-1182 -46 c29 -16 23 -28 -13 -26 -23 1 -33 -4 -36 -16 -3 -15 4 -18 37 -18 40 0 41 -1 35 -27 -8 -33 -20 -43 -55 -43 -35 0 -53 23 -53 67 0 25 7 41 23 54 27 22 35 23 62 9z m683 1 c3 -5 -1 -11 -9 -15 -21 -8 -21 -96 0 -96 8 0 15 -4 15 -10 0 -5 -7 -10 -15 -10 -8 0 -15 -7 -15 -15 0 -20 -6 -19 -32 7 -14 14 -18 23 -10 26 7 2 12 24 12 52 0 36 5 52 18 59 21 13 29 13 36 2z m406 -3 c24 2 25 0 21 -51 -1 -28 -8 -58 -13 -64 -15 -18 -75 -16 -81 2 -9 22 13 29 27 9 14 -19 36 -12 36 12 0 8 -9 14 -19 14 -32 0 -65 33 -57 57 7 22 33 34 51 24 5 -3 21 -4 35 -3z m200 -14 c0 -8 -7 -14 -15 -14 -15 0 -21 21 -9 33 10 9 24 -2 24 -19z m-1582 5 c-25 -14 -27 -149 -3 -149 9 0 18 7 21 15 9 22 24 18 24 -5 0 -11 5 -20 10 -20 15 0 13 157 -2 163 -7 3 6 6 30 6 40 1 42 0 28 -15 -27 -26 -16 -94 15 -94 16 0 19 8 19 55 0 53 1 55 26 55 20 0 24 -3 16 -13 -6 -7 -12 -35 -14 -62 l-3 -50 -38 0 c-35 0 -37 -1 -37 -34 0 -33 0 -34 -37 -27 -21 3 -64 6 -95 6 -55 0 -58 1 -58 25 0 27 15 34 24 10 3 -8 10 -15 16 -15 14 0 13 133 -2 148 -9 9 -2 12 33 12 35 -1 40 -3 27 -11z m460 0 c-18 -10 -25 -59 -9 -59 5 0 19 16 31 35 21 34 23 35 83 34 34 0 56 -3 50 -6 -9 -3 -13 -26 -13 -64 0 -56 -1 -59 -25 -59 -14 0 -25 5 -25 10 0 6 5 10 10 10 14 0 13 87 -2 96 -7 4 -23 -6 -40 -26 -25 -30 -26 -36 -13 -50 8 -9 15 -28 15 -43 0 -22 -6 -28 -37 -36 -48 -14 -93 -14 -93 -1 0 6 5 10 10 10 15 0 13 147 -2 153 -7 3 7 6 32 6 35 0 41 -2 28 -10z m354 2 c-9 -5 -12 -24 -10 -52 2 -36 7 -44 23 -44 17 0 20 8 23 53 3 49 4 52 30 51 15 0 21 -3 15 -6 -8 -2 -13 -22 -13 -44 0 -56 -15 -79 -50 -79 -27 0 -30 -3 -30 -30 0 -25 -4 -30 -25 -30 -14 0 -25 5 -25 10 0 6 5 10 10 10 15 0 13 143 -2 158 -9 9 -3 12 28 12 24 0 34 -3 26 -9z m344 -48 l17 -58 17 55 c26 81 43 76 70 -20 12 -44 27 -80 31 -80 5 0 9 -4 9 -10 0 -11 -53 -14 -63 -3 -4 3 -1 11 7 17 11 9 10 20 -4 66 -10 30 -18 49 -19 42 -3 -38 -34 -122 -45 -122 -7 0 -19 24 -26 55 -7 30 -16 55 -20 55 -13 0 -33 -94 -21 -98 21 -7 0 -22 -30 -22 -30 0 -36 8 -20 26 5 5 19 42 30 82 14 44 27 72 36 72 8 0 21 -23 31 -57z m-560 -104 c10 -17 -13 -36 -27 -22 -12 12 -4 33 11 33 5 0 12 -5 16 -11z"/>
<path d="M2542 553 c3 -19 30 -28 53 -19 25 9 5 36 -27 36 -23 0 -29 -4 -26 -17z"/>
<path d="M2554 456 c-7 -19 3 -36 22 -36 10 0 14 8 12 22 -4 26 -26 36 -34 14z"/>
<path d="M2130 435 c0 -8 9 -15 20 -15 11 0 20 7 20 15 0 8 -9 15 -20 15 -11 0 -20 -7 -20 -15z"/>
<path d="M3212 493 c2 -10 14 -19 26 -21 19 -3 23 1 20 15 -2 10 -14 19 -26 21 -19 3 -23 -1 -20 -15z"/>
<path d="M2330 406 c0 -22 5 -36 13 -36 42 1 51 62 10 68 -20 3 -23 -1 -23 -32z"/>
<path d="M5943 450 c0 -25 2 -35 4 -22 2 12 2 32 0 45 -2 12 -4 2 -4 -23z"/>
<path d="M5985 479 c-4 -6 -5 -12 -2 -15 2 -3 7 2 10 11 7 17 1 20 -8 4z"/>
<path d="M6073 455 c0 -22 2 -30 4 -17 2 12 2 30 0 40 -3 9 -5 -1 -4 -23z"/>
<path d="M6223 483 c4 -3 10 -3 14 0 3 4 0 7 -7 7 -7 0 -10 -3 -7 -7z"/>
<path d="M6382 470 c0 -14 2 -19 5 -12 2 6 2 18 0 25 -3 6 -5 1 -5 -13z"/>
<path d="M6463 455 c0 -22 2 -30 4 -17 2 12 2 30 0 40 -3 9 -5 -1 -4 -23z"/>
<path d="M6523 483 c4 -3 10 -3 14 0 3 4 0 7 -7 7 -7 0 -10 -3 -7 -7z"/>
<path d="M6623 455 c0 -22 2 -30 4 -17 2 12 2 30 0 40 -3 9 -5 -1 -4 -23z"/>
<path d="M6663 455 c0 -22 2 -30 4 -17 2 12 2 30 0 40 -3 9 -5 -1 -4 -23z"/>
<path d="M6712 460 c0 -19 2 -27 5 -17 2 9 2 25 0 35 -3 9 -5 1 -5 -18z"/>
<path d="M5897 461 c-4 -17 -3 -21 5 -13 5 5 8 16 6 23 -3 8 -7 3 -11 -10z"/>
<path d="M6133 445 c0 -22 2 -30 4 -17 2 12 2 30 0 40 -3 9 -5 -1 -4 -23z"/>
<path d="M6422 450 c0 -19 2 -27 5 -17 2 9 2 25 0 35 -3 9 -5 1 -5 -18z"/>
<path d="M6300 450 c0 -7 3 -10 7 -7 3 4 3 10 0 14 -4 3 -7 0 -7 -7z"/>
<path d="M6751 434 c0 -11 3 -14 6 -6 3 7 2 16 -1 19 -3 4 -6 -2 -5 -13z"/>
<path d="M6790 440 c0 -7 3 -10 7 -7 3 4 3 10 0 14 -4 3 -7 0 -7 -7z"/>
<path d="M5863 425 c-3 -9 -3 -18 -1 -21 3 -3 8 4 11 16 6 23 -1 27 -10 5z"/>
<path d="M6223 393 c4 -3 10 -3 14 0 3 4 0 7 -7 7 -7 0 -10 -3 -7 -7z"/>
</g>


</svg>